<?xml version="1.0" encoding="UTF-8" standalone="no"?>
<!-- Uploaded to: SVG Repo, www.svgrepo.com, Generator: SVG Repo Mixer Tools -->

<svg
   width="800px"
   height="800px"
   viewBox="0 0 24 24"
   fill="none"
   version="1.1"
   id="svg35"
   sodipodi:docname="stopwatch.svg"
   inkscape:version="1.1.2 (0a00cf5339, 2022-02-04)"
   xmlns:inkscape="http://www.inkscape.org/namespaces/inkscape"
   xmlns:sodipodi="http://sodipodi.sourceforge.net/DTD/sodipodi-0.dtd"
   xmlns="http://www.w3.org/2000/svg"
   xmlns:svg="http://www.w3.org/2000/svg">
  <defs
     id="defs39" />
  <sodipodi:namedview
     id="namedview37"
     pagecolor="#ffffff"
     bordercolor="#666666"
     borderopacity="1.0"
     inkscape:pageshadow="2"
     inkscape:pageopacity="0.0"
     inkscape:pagecheckerboard="0"
     showgrid="false"
     inkscape:zoom="0.9125"
     inkscape:cx="183.56164"
     inkscape:cy="400"
     inkscape:window-width="1920"
     inkscape:window-height="939"
     inkscape:window-x="0"
     inkscape:window-y="32"
     inkscape:window-maximized="1"
     inkscape:current-layer="svg35" />
  <path
     d="M12 14V11M12 6C7.85786 6 4.5 9.35786 4.5 13.5C4.5 17.6421 7.85786 21 12 21C16.1421 21 19.5 17.6421 19.5 13.5C19.5 11.5561 18.7605 9.78494 17.5474 8.4525M12 6C14.1982 6 16.1756 6.94572 17.5474 8.4525M12 6V3M19.5 6.5L17.5474 8.4525M12 3H9M12 3H15"
     stroke="#000000"
     stroke-width="2"
     stroke-linecap="round"
     stroke-linejoin="round"
     id="path33" />
  <path
     d="M12 14V11M12 6C7.85786 6 4.5 9.35786 4.5 13.5C4.5 17.6421 7.85786 21 12 21C16.1421 21 19.5 17.6421 19.5 13.5C19.5 11.5561 18.7605 9.78494 17.5474 8.4525M12 6C14.1982 6 16.1756 6.94572 17.5474 8.4525M12 6V3M19.5 6.5L17.5474 8.4525M12 3H9M12 3H15"
     stroke="#000000"
     stroke-width="2"
     stroke-linecap="round"
     stroke-linejoin="round"
     id="path1208"
     style="stroke:#ffffff;stroke-opacity:1;stroke-width:1.5;stroke-miterlimit:4;stroke-dasharray:none" />
</svg>
